<?xml version="1.0" encoding="UTF-8" standalone="no"?>
<svg width="907px" height="910px" viewBox="0 0 907 910" version="1.1" xmlns="http://www.w3.org/2000/svg" xmlns:xlink="http://www.w3.org/1999/xlink" xmlns:sketch="http://www.bohemiancoding.com/sketch/ns">
    <title>importer</title>
    <description>Created with Sketch (http://www.bohemiancoding.com/sketch)</description>
    <defs></defs>
    <g id="Page-1" stroke="none" stroke-width="1" fill="none" fill-rule="evenodd" sketch:type="MSPage">
        <rect id="Rectangle-1" fill="#C1D9F5" sketch:type="MSShapeGroup" x="3" y="311" width="888" height="145"></rect>
        <rect id="Rectangle-2" fill="#D4D4D4" sketch:type="MSShapeGroup" x="0" y="146" width="162" height="55" rx="8"></rect>
        <text id="csv" sketch:type="MSTextLayer" font-family="Oswald" font-size="24" font-weight="normal" fill="#000000">
            <tspan x="65" y="182">csv</tspan>
        </text>
        <path d="M82.5,216.5 L82.5,293.5" id="Line" stroke="#4990E2" stroke-width="5" stroke-linecap="square" fill="#303BA3" sketch:type="MSShapeGroup"></path>
        <path id="Line-decoration-1" d="M82.5,293.5 C83.55,289.72 84.45,286.48 85.5,282.7 C83.4,282.7 81.6,282.7 79.5,282.7 C80.55,286.48 81.45,289.72 82.5,293.5 C82.5,293.5 82.5,293.5 82.5,293.5 Z" stroke="#4990E2" stroke-width="5" stroke-linecap="square" fill="#303BA3"></path>
        <path d="M772.5,476.5 L772.5,553.5" id="Line" stroke="#4990E2" stroke-width="5" stroke-linecap="square" fill="#303BA3" sketch:type="MSShapeGroup"></path>
        <path id="Line-decoration-1" d="M772.5,553.5 C773.55,549.72 774.45,546.48 775.5,542.7 C773.4,542.7 771.6,542.7 769.5,542.7 C770.55,546.48 771.45,549.72 772.5,553.5 C772.5,553.5 772.5,553.5 772.5,553.5 Z" stroke="#4990E2" stroke-width="5" stroke-linecap="square" fill="#303BA3"></path>
        <path d="M766.5,210.5 L766.5,287.5" id="Line" stroke="#9B9B9B" stroke-width="5" stroke-linecap="square" fill="#303BA3" sketch:type="MSShapeGroup"></path>
        <path id="Line-decoration-1" d="M766.5,287.5 C767.55,283.72 768.45,280.48 769.5,276.7 C767.4,276.7 765.6,276.7 763.5,276.7 C764.55,280.48 765.45,283.72 766.5,287.5 C766.5,287.5 766.5,287.5 766.5,287.5 Z" stroke="#9B9B9B" stroke-width="5" stroke-linecap="square" fill="#303BA3"></path>
        <path d="M780.5,216.5 L780.5,293.5" id="Line" stroke="#9B9B9B" stroke-width="5" stroke-linecap="square" fill="#303BA3" sketch:type="MSShapeGroup" transform="translate(780.500000, 255.000000) scale(1, -1) translate(-780.500000, -255.000000) "></path>
        <path id="Line-decoration-1" d="M780.5,293.5 C781.55,289.72 782.45,286.48 783.5,282.7 C781.4,282.7 779.6,282.7 777.5,282.7 C778.55,286.48 779.45,289.72 780.5,293.5 C780.5,293.5 780.5,293.5 780.5,293.5 Z" stroke="#9B9B9B" stroke-width="5" stroke-linecap="square" fill="#303BA3"></path>
        <rect id="Rectangle-2" fill="#C1D9F5" sketch:type="MSShapeGroup" x="691" y="648" width="162" height="55" rx="8"></rect>
        <text id="relations.ndjson" fill="#4990E2" sketch:type="MSTextLayer" font-family="Oswald" font-size="20" font-weight="normal">
            <tspan x="706" y="682">relations.ndjson</tspan>
        </text>
        <rect id="Rectangle-2" fill="#C1D9F5" sketch:type="MSShapeGroup" x="693" y="578" width="162" height="55" rx="8"></rect>
        <text id="pits.ndjson" fill="#4990E2" sketch:type="MSTextLayer" font-family="Oswald" font-size="20" font-weight="normal">
            <tspan x="706" y="615">pits.ndjson</tspan>
        </text>
        <rect id="Rectangle-2" fill="#C1D9F5" sketch:type="MSShapeGroup" x="693" y="716" width="162" height="55" rx="8"></rect>
        <text id="source.ndjson" fill="#4990E2" sketch:type="MSTextLayer" font-family="Oswald" font-size="20" font-weight="normal">
            <tspan x="706" y="749">source.ndjson</tspan>
        </text>
        <g id="Rectangle-5-+-map" sketch:type="MSLayerGroup" transform="translate(468.000000, 330.000000)">
            <rect id="Rectangle-5" fill="#F7F7F7" sketch:type="MSShapeGroup" x="0" y="0" width="177" height="101" rx="8"></rect>
            <text id="map" sketch:type="MSTextLayer" font-family="Oswald" font-size="24" font-weight="normal" fill="#000000">
                <tspan x="62" y="42">map</tspan>
                <tspan x="62" y="78">fields</tspan>
            </text>
        </g>
        <g id="Rectangle-5-+-validate" sketch:type="MSLayerGroup" transform="translate(689.000000, 330.000000)">
            <rect id="Rectangle-5" fill="#F7F7F7" sketch:type="MSShapeGroup" x="0" y="0" width="177" height="101" rx="8"></rect>
            <text id="validate" sketch:type="MSTextLayer" font-family="Oswald" font-size="24" font-weight="normal" fill="#000000">
                <tspan x="50" y="42">validate</tspan>
                <tspan x="50" y="78">data</tspan>
            </text>
        </g>
        <g id="Rectangle-5-+-describe" sketch:type="MSLayerGroup" transform="translate(250.000000, 330.000000)">
            <g id="Rectangle-5" fill="#F7F7F7" sketch:type="MSShapeGroup">
                <rect x="0" y="0" width="177" height="101" rx="8"></rect>
            </g>
            <text id="describe" sketch:type="MSTextLayer" font-family="Oswald" font-size="24" font-weight="normal" fill="#000000">
                <tspan x="50" y="42">describe</tspan>
                <tspan x="50" y="78">source</tspan>
            </text>
        </g>
        <rect id="Rectangle-5" fill="#F7F7F7" sketch:type="MSShapeGroup" x="26" y="330" width="177" height="101" rx="8"></rect>
        <text id="new-or-existing" sketch:type="MSTextLayer" font-family="Oswald" font-size="24" font-weight="normal" fill="#000000">
            <tspan x="47" y="372">new or existing</tspan>
            <tspan x="47" y="408">source?</tspan>
        </text>
        <g id="Oval-1-+-Oval-1" sketch:type="MSLayerGroup" transform="translate(696.000000, 1.000000)" stroke="#979797" fill="#D8D8D8">
            <path d="M160.703599,170 C157.200393,181.766063 123.077542,191 81.5,191 C39.9224585,191 5.7996071,181.766063 2.29640091,170 L0,170 L0,24 L162,24 L162,170 L160.703599,170 Z" id="Oval-1" sketch:type="MSShapeGroup"></path>
            <ellipse id="Oval-1" sketch:type="MSShapeGroup" cx="81.5" cy="23" rx="79.5" ry="23"></ellipse>
        </g>
        <text id="field-mapping-&amp;" sketch:type="MSTextLayer" font-family="Oswald" font-size="20" font-weight="normal" fill="#000000">
            <tspan x="704" y="106">field mapping &amp;</tspan>
            <tspan x="704" y="136">source description</tspan>
        </text>
        <text id="import-csv" sketch:type="MSTextLayer" font-family="Oswald" font-size="20" font-weight="normal" fill="#000000">
            <tspan x="99" y="256">import csv</tspan>
        </text>
        <text id="export-ndjson" sketch:type="MSTextLayer" font-family="Oswald" font-size="20" font-weight="normal" fill="#000000">
            <tspan x="792" y="515">export ndjson</tspan>
        </text>
        <path d="M772.5,786.5 L772.5,863.5" id="Line" stroke="#4990E2" stroke-width="5" stroke-linecap="square" fill="#303BA3" sketch:type="MSShapeGroup"></path>
        <path id="Line-decoration-1" d="M772.5,863.5 C773.55,859.72 774.45,856.48 775.5,852.7 C773.4,852.7 771.6,852.7 769.5,852.7 C770.55,856.48 771.45,859.72 772.5,863.5 C772.5,863.5 772.5,863.5 772.5,863.5 Z" stroke="#4990E2" stroke-width="5" stroke-linecap="square" fill="#303BA3"></path>
        <text id="post-to-Histograph-a" sketch:type="MSTextLayer" font-family="Oswald" font-size="20" font-weight="normal" fill="#000000">
            <tspan x="688" y="909">post to Histograph api</tspan>
        </text>
        <text id="save-settings" sketch:type="MSTextLayer" font-family="Oswald" font-size="20" font-weight="normal" fill="#000000">
            <tspan x="804" y="256">save settings</tspan>
        </text>
    </g>
</svg>